<svg xmlns="http://www.w3.org/2000/svg" width="260" height="120" viewBox="0 0 260 120"><rect width="100%" height="100%" fill="#DDDDDD"/><path fill="#999999" d="M57.915 56.66v10.12q.93 1.12 2.01 1.58 1.09.46 2.37.46 1.23 0 2.22-.46t1.68-1.41q.7-.94 1.07-2.38.38-1.44.38-3.4 0-1.98-.32-3.36-.32-1.37-.92-2.23-.59-.86-1.44-1.25-.84-.4-1.92-.4-1.7 0-2.88.72-1.19.71-2.25 2.01m-.72-5.61.44 2.09q1.38-1.56 3.14-2.53t4.14-.97q1.85 0 3.37.77 1.53.77 2.64 2.23 1.12 1.47 1.72 3.61.61 2.15.61 4.92 0 2.53-.69 4.68-.68 2.16-1.94 3.74-1.27 1.59-3.06 2.48t-4.02.89q-1.89 0-3.23-.58-1.34-.59-2.4-1.62V80h-5.43V50.06h3.32q1.06 0 1.39.99m25.08.37.33 2.55q1.05-2.02 2.5-3.17 1.46-1.16 3.44-1.16 1.56 0 2.5.68l-.35 4.07q-.11.4-.32.56-.21.17-.56.17-.33 0-.98-.11t-1.26-.11q-.9 0-1.61.26-.7.27-1.26.76-.56.5-.99 1.2t-.81 1.61v13.9h-5.43V50.06h3.19q.84 0 1.17.3.33.29.44 1.06m15.9 7.33h10.25q0-1.06-.29-1.99-.3-.94-.89-1.64-.6-.71-1.51-1.11-.91-.41-2.12-.41-2.36 0-3.71 1.34t-1.73 3.81m13.86 3.28h-13.97q.13 1.73.62 3 .48 1.26 1.27 2.09.8.82 1.88 1.23 1.09.41 2.41.41t2.28-.31 1.67-.68q.72-.38 1.26-.68.54-.31 1.04-.31.68 0 1.01.5l1.57 1.98q-.91 1.06-2.03 1.78-1.12.71-2.34 1.14t-2.49.6q-1.26.18-2.45.18-2.35 0-4.38-.78-2.02-.78-3.52-2.31-1.49-1.53-2.35-3.78-.86-2.26-.86-5.23 0-2.31.75-4.34.75-2.04 2.14-3.55 1.4-1.5 3.41-2.38 2.02-.88 4.55-.88 2.13 0 3.93.68 1.81.68 3.11 1.99 1.29 1.31 2.03 3.21t.74 4.35q0 1.23-.27 1.66-.26.43-1.01.43m21.41-11.97h4.29l-8.96 22.57h-4.92l-8.96-22.57h4.49q.62 0 1.02.28.41.29.54.73l4.36 12.06q.35 1.05.61 2.06.27 1.02.47 2.03.22-1.01.48-2.03.26-1.01.64-2.06l4.44-12.06q.16-.44.55-.73.4-.28.95-.28m7.35 0h5.45v22.57h-5.45zm6.2-6.58q0 .7-.29 1.32-.28.62-.76 1.08-.47.46-1.11.74-.63.27-1.36.27-.7 0-1.33-.27-.63-.28-1.09-.74t-.74-1.08q-.27-.62-.27-1.32 0-.73.27-1.36.28-.64.74-1.1.46-.47 1.09-.74.63-.28 1.33-.28.73 0 1.36.28.64.27 1.11.74.48.46.76 1.1.29.63.29 1.36m9.09 15.27h10.25q0-1.06-.3-1.99-.3-.94-.89-1.64-.59-.71-1.51-1.11-.91-.41-2.12-.41-2.35 0-3.71 1.34-1.35 1.34-1.72 3.81m13.86 3.28h-13.97q.13 1.73.61 3 .49 1.26 1.28 2.09.79.82 1.88 1.23t2.41.41 2.27-.31q.96-.31 1.68-.68.71-.38 1.25-.68.54-.31 1.05-.31.68 0 1.01.5l1.56 1.98q-.9 1.06-2.03 1.78-1.12.71-2.34 1.14t-2.48.6q-1.27.18-2.46.18-2.35 0-4.37-.78-2.03-.78-3.52-2.31-1.5-1.53-2.36-3.78-.86-2.26-.86-5.23 0-2.31.75-4.34.75-2.04 2.15-3.55 1.39-1.5 3.41-2.38 2.01-.88 4.54-.88 2.13 0 3.94.68 1.8.68 3.1 1.99t2.03 3.21q.74 1.9.74 4.35 0 1.23-.26 1.66-.27.43-1.01.43m33.44-11.97h4.13l-7.17 22.57h-4.36q-.75 0-1.03-.97l-4.05-13.04q-.2-.66-.36-1.31-.17-.65-.28-1.31-.13.66-.29 1.33-.17.67-.37 1.33l-4.11 13q-.26.97-1.17.97h-4.18l-7.15-22.57h4.34q.59 0 1.01.28.42.29.55.73l3.23 12.06q.25.99.43 1.93.19.95.32 1.89.24-.94.52-1.89.27-.94.58-1.93l3.74-12.1q.13-.44.52-.73.38-.29.93-.29h2.4q.57 0 .98.29t.54.73l3.63 12.1q.28.99.54 1.94.25.96.49 1.91.29-1.87.82-3.85l3.32-12.06q.15-.44.55-.73.39-.28.95-.28"/></svg>